<svg aria-hidden="true" style="position: absolute; width: 0; height: 0; overflow: hidden;" version="1.1" xmlns="http://www.w3.org/2000/svg" xmlns:xlink="http://www.w3.org/1999/xlink">
<defs>
<symbol id="icon-arrow-down" viewBox="0 0 32 32">
<path d="M30.748 10.748l-13.333 13.333c-0.186 0.186-0.407 0.334-0.65 0.435s-0.504 0.153-0.767 0.153c-0.263 0-0.524-0.052-0.767-0.153s-0.464-0.249-0.65-0.435l-13.333-13.333c-0.376-0.376-0.587-0.885-0.587-1.417s0.211-1.041 0.587-1.417c0.376-0.376 0.885-0.587 1.417-0.587s1.041 0.211 1.417 0.587l11.918 11.918 11.918-11.92c0.376-0.376 0.885-0.587 1.417-0.587s1.041 0.211 1.417 0.587 0.587 0.885 0.587 1.417c0 0.531-0.211 1.041-0.587 1.417l-0.003 0.002z"></path>
</symbol>
<symbol id="icon-arrow-left" viewBox="0 0 32 32">
<path d="M12.326 3.927l-10.8 10.8c-0.168 0.167-0.301 0.366-0.392 0.585s-0.138 0.453-0.138 0.69c0 0.237 0.047 0.471 0.138 0.69s0.224 0.418 0.392 0.585l10.8 10.8c0.338 0.338 0.797 0.528 1.275 0.528s0.937-0.19 1.275-0.528c0.338-0.338 0.528-0.797 0.528-1.275s-0.19-0.937-0.528-1.275l-7.726-7.727h22.050c0.477 0 0.935-0.19 1.273-0.527s0.527-0.795 0.527-1.273c0-0.477-0.19-0.935-0.527-1.273s-0.795-0.527-1.273-0.527h-22.050l7.728-7.726c0.338-0.338 0.528-0.797 0.528-1.275s-0.19-0.937-0.528-1.275c-0.338-0.338-0.797-0.528-1.275-0.528s-0.937 0.19-1.275 0.528l-0.002 0.003z"></path>
</symbol>
<symbol id="icon-arrow-rigth" viewBox="0 0 32 32">
<path d="M19.673 3.927l10.8 10.8c0.168 0.167 0.301 0.366 0.392 0.585s0.138 0.453 0.138 0.69c0 0.237-0.047 0.471-0.138 0.69s-0.224 0.418-0.392 0.585l-10.8 10.8c-0.338 0.338-0.797 0.528-1.275 0.528s-0.937-0.19-1.275-0.528c-0.338-0.338-0.528-0.797-0.528-1.275s0.19-0.937 0.528-1.275l7.727-7.727h-22.050c-0.477 0-0.935-0.19-1.273-0.527s-0.527-0.795-0.527-1.273c0-0.477 0.19-0.935 0.527-1.273s0.795-0.527 1.273-0.527h22.050l-7.728-7.726c-0.338-0.338-0.528-0.797-0.528-1.275s0.19-0.937 0.528-1.275c0.338-0.338 0.797-0.528 1.275-0.528s0.937 0.19 1.275 0.528l0.001 0.003z"></path>
</symbol>
<symbol id="icon-arrow-rigth-page" viewBox="0 0 32 32">
<path d="M10.749 1.252l13.333 13.333c0.186 0.186 0.334 0.407 0.435 0.65s0.153 0.504 0.153 0.767c0 0.263-0.052 0.524-0.153 0.767s-0.249 0.464-0.435 0.65l-13.333 13.333c-0.376 0.376-0.885 0.587-1.417 0.587s-1.041-0.211-1.417-0.587c-0.376-0.376-0.587-0.885-0.587-1.417s0.211-1.041 0.587-1.417l11.918-11.918-11.92-11.918c-0.376-0.376-0.587-0.885-0.587-1.417s0.211-1.041 0.587-1.417c0.376-0.376 0.885-0.587 1.417-0.587s1.041 0.211 1.417 0.587l0.002 0.003z"></path>
</symbol>
<symbol id="icon-arrow-up-page" viewBox="0 0 32 32">
<path d="M1.252 21.252l13.333-13.333c0.186-0.186 0.407-0.334 0.65-0.435s0.504-0.153 0.767-0.153c0.263 0 0.524 0.052 0.767 0.153s0.464 0.249 0.65 0.435l13.333 13.333c0.376 0.376 0.587 0.885 0.587 1.417s-0.211 1.041-0.587 1.417c-0.376 0.376-0.885 0.587-1.417 0.587s-1.041-0.211-1.417-0.587l-11.918-11.918-11.918 11.92c-0.376 0.376-0.885 0.587-1.417 0.587s-1.041-0.211-1.417-0.587c-0.376-0.376-0.587-0.885-0.587-1.417s0.211-1.041 0.587-1.417l0.003-0.002z"></path>
</symbol>
<symbol id="icon-big-star" viewBox="0 0 32 32">
<path d="M16 0c0.543 8.602 7.398 15.457 16 16-8.602 0.543-15.457 7.398-16 16-0.543-8.602-7.398-15.457-16-16 8.602-0.543 15.457-7.398 16-16z"></path>
</symbol>
<symbol id="icon-burger" viewBox="0 0 32 32">
<path d="M31 16c0 0.477-0.19 0.935-0.527 1.273s-0.795 0.527-1.273 0.527h-26.4c-0.477 0-0.935-0.19-1.273-0.527s-0.527-0.795-0.527-1.273c0-0.477 0.19-0.935 0.527-1.273s0.795-0.527 1.273-0.527h26.4c0.477 0 0.935 0.19 1.273 0.527s0.527 0.795 0.527 1.273zM2.8 8.2h26.4c0.477 0 0.935-0.19 1.273-0.527s0.527-0.795 0.527-1.273c0-0.477-0.19-0.935-0.527-1.273s-0.795-0.527-1.273-0.527h-26.4c-0.477 0-0.935 0.19-1.273 0.527s-0.527 0.795-0.527 1.273c0 0.477 0.19 0.935 0.527 1.273s0.795 0.527 1.273 0.527zM29.2 23.8h-26.4c-0.477 0-0.935 0.19-1.273 0.527s-0.527 0.795-0.527 1.273c0 0.477 0.19 0.935 0.527 1.273s0.795 0.527 1.273 0.527h26.4c0.477 0 0.935-0.19 1.273-0.527s0.527-0.795 0.527-1.273c0-0.477-0.19-0.935-0.527-1.273s-0.795-0.527-1.273-0.527z"></path>
</symbol>
<symbol id="icon-cart" viewBox="0 0 32 32">
<path d="M13.043 27.478c0 0.516-0.153 1.020-0.44 1.449s-0.694 0.763-1.171 0.961c-0.477 0.197-1.001 0.249-1.507 0.148s-0.971-0.349-1.336-0.714-0.613-0.83-0.714-1.336c-0.101-0.506-0.049-1.031 0.148-1.507s0.532-0.884 0.961-1.171c0.429-0.287 0.933-0.44 1.449-0.44 0.692 0 1.355 0.275 1.845 0.764s0.764 1.153 0.764 1.845zM24 24.87c-0.516 0-1.020 0.153-1.449 0.44s-0.763 0.694-0.961 1.171c-0.197 0.477-0.249 1.001-0.148 1.507s0.349 0.971 0.714 1.336 0.83 0.613 1.336 0.714c0.506 0.101 1.031 0.049 1.507-0.148s0.884-0.532 1.171-0.961c0.287-0.429 0.44-0.933 0.44-1.449 0-0.692-0.275-1.355-0.764-1.845s-1.153-0.764-1.845-0.764zM30.713 9.156l-3.559 11.57c-0.227 0.748-0.69 1.403-1.319 1.868s-1.391 0.714-2.173 0.711h-12.845c-0.793-0.003-1.564-0.262-2.197-0.74s-1.095-1.147-1.315-1.909l-4.46-15.612h-1.28c-0.415 0-0.813-0.165-1.107-0.458s-0.458-0.692-0.458-1.107c0-0.415 0.165-0.813 0.458-1.107s0.692-0.458 1.107-0.458h1.672c0.567 0.002 1.117 0.187 1.569 0.528s0.782 0.82 0.939 1.364l0.951 3.325h22.521c0.245 0 0.487 0.057 0.705 0.168s0.408 0.27 0.554 0.468 0.243 0.426 0.284 0.667c0.041 0.241 0.025 0.489-0.047 0.723zM27.098 10.261h-19.508l2.725 9.535c0.031 0.109 0.097 0.205 0.188 0.273s0.201 0.105 0.314 0.105h12.845c0.112 0 0.22-0.035 0.31-0.102s0.156-0.16 0.189-0.266l2.936-9.545z"></path>
</symbol>
<symbol id="icon-check-mark" viewBox="0 0 32 32">
<path d="M16 1.263c-2.938 0-5.811 0.871-8.254 2.504s-4.348 3.953-5.472 6.668c-1.125 2.715-1.419 5.702-0.845 8.584s1.988 5.529 4.066 7.607c2.078 2.078 4.725 3.493 7.607 4.066s5.869 0.279 8.584-0.846c2.715-1.124 5.035-3.029 6.668-5.472s2.504-5.316 2.504-8.254c-0.004-3.939-1.571-7.716-4.356-10.501s-6.562-4.352-10.501-4.356zM22.523 13.501l-8 8c-0.106 0.106-0.232 0.191-0.371 0.248s-0.287 0.087-0.438 0.087-0.299-0.030-0.438-0.087c-0.139-0.057-0.265-0.142-0.371-0.248l-3.429-3.429c-0.214-0.214-0.335-0.505-0.335-0.809s0.12-0.594 0.335-0.809c0.214-0.215 0.505-0.335 0.809-0.335s0.594 0.12 0.809 0.335l2.62 2.621 7.191-7.193c0.106-0.106 0.232-0.19 0.371-0.248s0.288-0.087 0.438-0.087c0.15 0 0.299 0.030 0.438 0.087s0.265 0.142 0.371 0.248 0.19 0.232 0.248 0.371c0.057 0.139 0.087 0.287 0.087 0.438s-0.030 0.299-0.087 0.438c-0.057 0.139-0.142 0.265-0.248 0.371z"></path>
</symbol>
<symbol id="icon-check-mark-two" viewBox="0 0 32 32">
<path d="M29.752 8.316l-18.052 18.052c-0.157 0.158-0.344 0.283-0.55 0.368s-0.426 0.129-0.649 0.129-0.443-0.044-0.649-0.129c-0.206-0.086-0.393-0.211-0.55-0.368l-7.898-7.898c-0.157-0.157-0.282-0.344-0.367-0.55s-0.129-0.426-0.129-0.649c0-0.223 0.044-0.443 0.129-0.649s0.21-0.393 0.367-0.55c0.157-0.157 0.344-0.282 0.55-0.367s0.426-0.129 0.649-0.129c0.223 0 0.443 0.044 0.649 0.129s0.393 0.21 0.55 0.367l6.7 6.7 16.854-16.851c0.318-0.318 0.749-0.497 1.199-0.497s0.881 0.179 1.199 0.497c0.318 0.318 0.497 0.749 0.497 1.199s-0.179 0.881-0.497 1.199l-0.003-0.003z"></path>
</symbol>
<symbol id="icon-close" viewBox="0 0 32 32">
<path d="M30.204 27.208c0.398 0.398 0.621 0.937 0.621 1.5s-0.224 1.102-0.621 1.5c-0.398 0.398-0.937 0.621-1.5 0.621s-1.102-0.223-1.5-0.621l-11.204-11.208-11.208 11.204c-0.398 0.398-0.937 0.621-1.5 0.621s-1.102-0.223-1.5-0.621c-0.398-0.398-0.621-0.937-0.621-1.5s0.224-1.102 0.621-1.5l11.208-11.204-11.204-11.208c-0.398-0.398-0.621-0.937-0.621-1.5s0.224-1.102 0.621-1.5c0.398-0.398 0.937-0.621 1.5-0.621s1.102 0.224 1.5 0.621l11.204 11.208 11.208-11.209c0.398-0.398 0.937-0.621 1.5-0.621s1.102 0.224 1.5 0.621c0.398 0.398 0.621 0.937 0.621 1.5s-0.223 1.102-0.621 1.5l-11.208 11.209 11.204 11.208z"></path>
</symbol>
<symbol id="icon-delete" viewBox="0 0 32 32">
<path d="M29.2 5.6h-6v-1.2c0-0.955-0.379-1.87-1.054-2.546s-1.591-1.054-2.546-1.054h-7.2c-0.955 0-1.87 0.379-2.546 1.054s-1.054 1.591-1.054 2.546v1.2h-6c-0.318 0-0.623 0.126-0.849 0.351s-0.351 0.53-0.351 0.849c0 0.318 0.126 0.623 0.351 0.849s0.53 0.351 0.849 0.351h1.2v21.6c0 0.636 0.253 1.247 0.703 1.697s1.061 0.703 1.697 0.703h19.2c0.636 0 1.247-0.253 1.697-0.703s0.703-1.061 0.703-1.697v-21.6h1.2c0.318 0 0.624-0.126 0.848-0.351s0.352-0.53 0.352-0.849-0.126-0.623-0.352-0.849c-0.225-0.225-0.53-0.351-0.848-0.351zM13.6 23.6c0 0.318-0.126 0.624-0.351 0.848s-0.53 0.352-0.849 0.352-0.623-0.126-0.849-0.352c-0.225-0.225-0.351-0.53-0.351-0.848v-9.6c0-0.318 0.126-0.623 0.351-0.849s0.53-0.351 0.849-0.351c0.318 0 0.623 0.126 0.849 0.351s0.351 0.53 0.351 0.849v9.6zM20.8 23.6c0 0.318-0.126 0.624-0.352 0.848s-0.53 0.352-0.848 0.352-0.624-0.126-0.848-0.352c-0.225-0.225-0.352-0.53-0.352-0.848v-9.6c0-0.318 0.126-0.623 0.352-0.849s0.53-0.351 0.848-0.351 0.624 0.126 0.848 0.351c0.225 0.225 0.352 0.53 0.352 0.849v9.6zM20.8 5.6h-9.6v-1.2c0-0.318 0.126-0.623 0.351-0.849s0.53-0.351 0.849-0.351h7.2c0.318 0 0.624 0.126 0.848 0.351s0.352 0.53 0.352 0.849v1.2z"></path>
</symbol>
<symbol id="icon-email" viewBox="0 0 32 32">
<path d="M29.091 4.545h-26.182c-0.434 0-0.85 0.172-1.157 0.479s-0.479 0.723-0.479 1.157v18.545c0 0.723 0.287 1.417 0.799 1.928s1.205 0.799 1.928 0.799h24c0.723 0 1.417-0.287 1.928-0.799s0.799-1.205 0.799-1.928v-18.545c0-0.434-0.172-0.85-0.479-1.157s-0.723-0.479-1.157-0.479zM16 15.962l-8.884-8.144h17.768l-8.884 8.144zM11.199 16l-6.653 6.098v-12.196l6.653 6.098zM13.62 18.22l1.274 1.169c0.302 0.277 0.696 0.43 1.106 0.43s0.804-0.153 1.106-0.43l1.274-1.169 6.505 5.962h-17.768l6.505-5.962zM20.801 16l6.653-6.098v12.196l-6.653-6.098z"></path>
</symbol>
<symbol id="icon-facebook" viewBox="0 0 32 32">
<path d="M12.822 30.286v-13.67h-4.6v-5.328h4.6v-3.929c0-4.559 2.785-7.042 6.852-7.042 1.948 0 3.623 0.145 4.111 0.21v4.765l-2.821 0.001c-2.212 0-2.64 1.051-2.64 2.594v3.401h5.276l-0.687 5.328h-4.589v13.67h-5.502z"></path>
</symbol>
<symbol id="icon-filters" viewBox="0 0 32 32">
<path d="M17.636 15.455v12.545c0 0.434-0.172 0.85-0.479 1.157s-0.723 0.479-1.157 0.479c-0.434 0-0.85-0.172-1.157-0.479s-0.479-0.723-0.479-1.157v-12.545c0-0.434 0.172-0.85 0.479-1.157s0.723-0.479 1.157-0.479 0.85 0.172 1.157 0.479c0.307 0.307 0.479 0.723 0.479 1.157zM25.818 24.727c-0.434 0-0.85 0.172-1.157 0.479s-0.479 0.723-0.479 1.157v1.636c0 0.434 0.172 0.85 0.479 1.157s0.723 0.479 1.157 0.479c0.434 0 0.85-0.172 1.157-0.479s0.479-0.723 0.479-1.157v-1.636c0-0.434-0.172-0.85-0.479-1.157s-0.723-0.479-1.157-0.479zM29.091 19.273h-1.636v-15.273c0-0.434-0.172-0.85-0.479-1.157s-0.723-0.479-1.157-0.479c-0.434 0-0.85 0.172-1.157 0.479s-0.479 0.723-0.479 1.157v15.273h-1.636c-0.434 0-0.85 0.172-1.157 0.479s-0.479 0.723-0.479 1.157c0 0.434 0.172 0.85 0.479 1.157s0.723 0.479 1.157 0.479h6.545c0.434 0 0.85-0.172 1.157-0.479s0.479-0.723 0.479-1.157c0-0.434-0.172-0.85-0.479-1.157s-0.723-0.479-1.157-0.479zM6.182 20.364c-0.434 0-0.85 0.172-1.157 0.479s-0.479 0.723-0.479 1.157v6c0 0.434 0.172 0.85 0.479 1.157s0.723 0.479 1.157 0.479c0.434 0 0.85-0.172 1.157-0.479s0.479-0.723 0.479-1.157v-6c0-0.434-0.172-0.85-0.479-1.157s-0.723-0.479-1.157-0.479zM9.455 14.909h-1.636v-10.909c0-0.434-0.172-0.85-0.479-1.157s-0.723-0.479-1.157-0.479c-0.434 0-0.85 0.172-1.157 0.479s-0.479 0.723-0.479 1.157v10.909h-1.636c-0.434 0-0.85 0.172-1.157 0.479s-0.479 0.723-0.479 1.157c0 0.434 0.172 0.85 0.479 1.157s0.723 0.479 1.157 0.479h6.545c0.434 0 0.85-0.172 1.157-0.479s0.479-0.723 0.479-1.157c0-0.434-0.172-0.85-0.479-1.157s-0.723-0.479-1.157-0.479zM19.273 8.364h-1.636v-4.364c0-0.434-0.172-0.85-0.479-1.157s-0.723-0.479-1.157-0.479c-0.434 0-0.85 0.172-1.157 0.479s-0.479 0.723-0.479 1.157v4.364h-1.636c-0.434 0-0.85 0.172-1.157 0.479s-0.479 0.723-0.479 1.157c0 0.434 0.172 0.85 0.479 1.157s0.723 0.479 1.157 0.479h6.545c0.434 0 0.85-0.172 1.157-0.479s0.479-0.723 0.479-1.157c0-0.434-0.172-0.85-0.479-1.157s-0.723-0.479-1.157-0.479z"></path>
</symbol>
<symbol id="icon-github" viewBox="0 0 32 32">
<path d="M15.101 1.661c-8.208 0-14.811 6.603-14.811 14.811 0 6.542 4.258 12.096 10.121 14.071 0.741 0.123 0.987-0.309 0.987-0.741 0-0.37 0-1.296 0-2.53-4.135 0.926-4.999-1.975-4.999-1.975-0.679-1.728-1.666-2.16-1.666-2.16-1.358-0.926 0.123-0.926 0.123-0.926 1.481 0.123 2.283 1.543 2.283 1.543 1.296 2.283 3.456 1.605 4.32 1.234 0.123-0.987 0.494-1.605 0.926-1.975-3.271-0.37-6.727-1.666-6.727-7.344 0-1.605 0.555-2.962 1.543-3.95-0.123-0.37-0.679-1.851 0.123-3.95 0 0 1.234-0.37 4.073 1.543 1.173-0.309 2.469-0.494 3.703-0.494s2.53 0.185 3.703 0.494c2.839-1.913 4.073-1.543 4.073-1.543 0.802 2.037 0.309 3.518 0.123 3.95 0.926 1.049 1.543 2.345 1.543 3.95 0 5.678-3.456 6.912-6.788 7.282 0.555 0.432 0.987 1.358 0.987 2.715 0 1.975 0 3.579 0 4.073 0 0.37 0.247 0.864 1.049 0.741 5.863-1.913 10.121-7.467 10.121-14.009 0-8.208-6.603-14.811-14.811-14.811z"></path>
</symbol>
<symbol id="icon-G-pay" viewBox="0 0 32 32">
<path fill="#3c4043" style="fill: var(--color1, #3c4043)" d="M15.174 19.436h-1.157v-9.002h3.067c0.777 0 1.44 0.259 1.982 0.777 0.554 0.518 0.832 1.151 0.832 1.898 0 0.765-0.277 1.398-0.832 1.91-0.536 0.512-1.199 0.765-1.982 0.765h-1.91v3.651zM15.174 11.543v3.139h1.934c0.458 0 0.844-0.157 1.145-0.464 0.307-0.307 0.464-0.681 0.464-1.103 0-0.416-0.157-0.783-0.464-1.091-0.301-0.319-0.681-0.476-1.145-0.476h-1.934v-0.006z"></path>
<path fill="#3c4043" style="fill: var(--color1, #3c4043)" d="M22.922 13.073c0.856 0 1.531 0.229 2.025 0.687s0.741 1.085 0.741 1.88v3.796h-1.103v-0.856h-0.048c-0.476 0.705-1.115 1.054-1.91 1.054-0.681 0-1.247-0.199-1.705-0.603s-0.687-0.904-0.687-1.506c0-0.639 0.241-1.145 0.723-1.518 0.482-0.38 1.127-0.566 1.928-0.566 0.687 0 1.253 0.127 1.693 0.38v-0.265c0-0.404-0.157-0.741-0.476-1.024s-0.693-0.422-1.121-0.422c-0.645 0-1.157 0.271-1.531 0.819l-1.018-0.639c0.56-0.813 1.392-1.217 2.489-1.217zM21.428 17.544c0 0.301 0.127 0.554 0.386 0.753 0.253 0.199 0.554 0.301 0.898 0.301 0.488 0 0.922-0.181 1.302-0.542s0.572-0.783 0.572-1.271c-0.362-0.283-0.862-0.428-1.506-0.428-0.47 0-0.862 0.114-1.175 0.337-0.319 0.235-0.476 0.518-0.476 0.85z"></path>
<path fill="#3c4043" style="fill: var(--color1, #3c4043)" d="M31.979 13.272l-3.856 8.87h-1.193l1.434-3.103-2.543-5.766h1.259l1.832 4.423h0.024l1.784-4.423h1.259z"></path>
<path fill="#4285f4" style="fill: var(--color2, #4285f4)" d="M10.572 15.056c0-0.377-0.034-0.738-0.096-1.085h-4.849v1.988l2.793 0.001c-0.113 0.662-0.478 1.226-1.036 1.602v1.29h1.662c0.971-0.898 1.527-2.226 1.527-3.796z"></path>
<path fill="#34a853" style="fill: var(--color3, #34a853)" d="M7.383 17.561c-0.463 0.312-1.059 0.495-1.756 0.495-1.347 0-2.489-0.907-2.898-2.131h-1.715v1.33c0.85 1.686 2.596 2.843 4.613 2.843 1.394 0 2.566-0.459 3.418-1.248l-1.662-1.289z"></path>
<path fill="#fabb05" style="fill: var(--color4, #fabb05)" d="M2.567 14.938c0-0.343 0.057-0.675 0.161-0.988v-1.33h-1.715c-0.351 0.697-0.549 1.484-0.549 2.318s0.198 1.621 0.549 2.318l1.715-1.33c-0.104-0.312-0.161-0.644-0.161-0.988z"></path>
<path fill="#e94235" style="fill: var(--color5, #e94235)" d="M5.627 11.82c0.761 0 1.443 0.262 1.981 0.774l1.473-1.472c-0.895-0.833-2.061-1.345-3.454-1.345-2.017 0-3.764 1.157-4.613 2.843l1.715 1.33c0.409-1.223 1.552-2.131 2.898-2.131z"></path>
</symbol>
<symbol id="icon-human" viewBox="0 0 32 32">
<path d="M16 1.273c-2.913 0-5.76 0.864-8.182 2.482s-4.31 3.918-5.424 6.609c-1.115 2.691-1.406 5.652-0.838 8.509s1.971 5.481 4.031 7.541 4.684 3.462 7.541 4.031c2.857 0.568 5.818 0.276 8.509-0.838s4.991-3.002 6.609-5.424c1.618-2.422 2.482-5.269 2.482-8.182-0.004-3.905-1.557-7.648-4.318-10.409s-6.504-4.314-10.409-4.318zM9.396 25.35c0.76-1.039 1.754-1.884 2.901-2.466s2.416-0.886 3.703-0.886c1.287 0 2.556 0.304 3.703 0.886s2.142 1.427 2.901 2.466c-1.93 1.369-4.238 2.104-6.604 2.104s-4.674-0.735-6.604-2.104zM12.182 14.909c0-0.755 0.224-1.493 0.643-2.121s1.016-1.117 1.714-1.406c0.698-0.289 1.465-0.365 2.206-0.217s1.421 0.511 1.955 1.045c0.534 0.534 0.898 1.214 1.045 1.955s0.072 1.508-0.217 2.206c-0.289 0.698-0.778 1.294-1.406 1.714s-1.366 0.643-2.121 0.643c-1.013 0-1.984-0.402-2.7-1.118s-1.118-1.687-1.118-2.7zM25 23.083c-1.061-1.349-2.413-2.441-3.954-3.194 0.983-0.995 1.649-2.259 1.916-3.632s0.121-2.794-0.419-4.085c-0.539-1.29-1.448-2.393-2.612-3.168s-2.532-1.189-3.93-1.189-2.766 0.414-3.93 1.189c-1.164 0.775-2.073 1.877-2.612 3.168s-0.685 2.712-0.419 4.085c0.266 1.373 0.933 2.637 1.916 3.632-1.542 0.753-2.894 1.845-3.955 3.194-1.332-1.689-2.162-3.719-2.394-5.857s0.142-4.299 1.080-6.235c0.938-1.935 2.403-3.568 4.226-4.71s3.93-1.748 6.081-1.748c2.151 0 4.259 0.606 6.081 1.748s3.287 2.774 4.226 4.71c0.938 1.936 1.313 4.096 1.080 6.235s-1.062 4.168-2.394 5.857h0.014z"></path>
</symbol>
<symbol id="icon-instagram" viewBox="0 0 32 32">
<path d="M16.002 3.308c4.134 0 4.624 0.015 6.257 0.090 0.982 0.012 1.955 0.192 2.875 0.533 0.668 0.258 1.274 0.652 1.781 1.158s0.901 1.113 1.158 1.781c0.341 0.921 0.521 1.894 0.533 2.876 0.074 1.633 0.090 2.123 0.090 6.257s-0.015 4.624-0.090 6.257c-0.012 0.982-0.192 1.954-0.533 2.876-0.257 0.668-0.652 1.274-1.158 1.781s-1.113 0.901-1.781 1.158c-0.921 0.341-1.893 0.521-2.875 0.533-1.632 0.074-2.122 0.090-6.257 0.090s-4.625-0.015-6.257-0.090c-0.982-0.012-1.955-0.192-2.876-0.533-0.668-0.258-1.274-0.652-1.781-1.158s-0.901-1.113-1.158-1.781c-0.341-0.921-0.521-1.894-0.533-2.876-0.074-1.633-0.090-2.123-0.090-6.257s0.015-4.624 0.090-6.257c0.012-0.982 0.192-1.955 0.533-2.876 0.258-0.668 0.652-1.274 1.158-1.781s1.113-0.901 1.781-1.158c0.921-0.341 1.894-0.521 2.876-0.533 1.633-0.074 2.123-0.090 6.257-0.090zM16.002 0.518c-4.203 0-4.732 0.018-6.384 0.093-1.285 0.026-2.557 0.269-3.76 0.72-1.033 0.389-1.968 0.999-2.741 1.787-0.788 0.773-1.399 1.709-1.788 2.742-0.451 1.204-0.694 2.475-0.72 3.76-0.074 1.65-0.091 2.18-0.091 6.382s0.018 4.732 0.093 6.384c0.026 1.285 0.269 2.557 0.72 3.76 0.389 1.033 0.999 1.969 1.787 2.742 0.773 0.788 1.709 1.398 2.742 1.787 1.204 0.451 2.475 0.694 3.76 0.72 1.652 0.074 2.179 0.093 6.384 0.093s4.732-0.018 6.384-0.093c1.285-0.025 2.557-0.269 3.76-0.72 1.028-0.399 1.962-1.007 2.741-1.787s1.388-1.714 1.786-2.743c0.451-1.204 0.694-2.475 0.72-3.76 0.074-1.65 0.091-2.18 0.091-6.382s-0.018-4.732-0.093-6.384c-0.026-1.285-0.269-2.557-0.72-3.76-0.389-1.033-0.999-1.969-1.787-2.742-0.773-0.788-1.709-1.398-2.742-1.787-1.204-0.451-2.475-0.694-3.76-0.72-1.65-0.074-2.18-0.091-6.382-0.091z"></path>
<path d="M16.005 8.054c-1.573 0-3.11 0.466-4.418 1.34s-2.327 2.116-2.929 3.568c-0.602 1.453-0.759 3.052-0.452 4.594s1.064 2.959 2.176 4.071c1.112 1.112 2.529 1.869 4.071 2.176s3.141 0.149 4.594-0.452c1.453-0.602 2.695-1.621 3.568-2.929s1.34-2.845 1.34-4.418c0-2.109-0.838-4.131-2.329-5.622s-3.514-2.329-5.622-2.329zM16.005 21.166c-1.021 0-2.019-0.303-2.867-0.87s-1.51-1.373-1.901-2.316c-0.391-0.943-0.493-1.981-0.294-2.982s0.691-1.921 1.413-2.643c0.722-0.722 1.641-1.213 2.643-1.413s2.039-0.097 2.982 0.294c0.943 0.391 1.749 1.052 2.316 1.901s0.87 1.847 0.87 2.867c0 1.369-0.544 2.682-1.512 3.65s-2.281 1.512-3.65 1.512z"></path>
<path d="M24.269 9.596c1.026 0 1.858-0.832 1.858-1.858s-0.832-1.858-1.858-1.858c-1.026 0-1.858 0.832-1.858 1.858s0.832 1.858 1.858 1.858z"></path>
</symbol>
<symbol id="icon-mastercard" viewBox="0 0 32 32">
<path fill="#ff5f00" style="fill: var(--color6, #ff5f00)" d="M20.024 8.429h-8.447v15.18h8.447v-15.18z"></path>
<path fill="#eb001b" style="fill: var(--color7, #eb001b)" d="M12.114 16.019c-0.001-1.462 0.33-2.905 0.969-4.22s1.568-2.467 2.718-3.37c-1.424-1.119-3.135-1.816-4.936-2.009s-3.62 0.124-5.249 0.916c-1.629 0.792-3.003 2.026-3.964 3.561s-1.471 3.31-1.471 5.122c0 1.811 0.51 3.586 1.471 5.122s2.335 2.77 3.964 3.561 3.448 1.109 5.249 0.916c1.801-0.193 3.511-0.889 4.936-2.009-1.15-0.903-2.080-2.055-2.718-3.37s-0.97-2.758-0.969-4.22z"></path>
<path fill="#f79e1b" style="fill: var(--color8, #f79e1b)" d="M31.42 16.019c0 1.811-0.51 3.586-1.471 5.122s-2.335 2.77-3.964 3.561c-1.629 0.792-3.448 1.109-5.249 0.916s-3.511-0.889-4.936-2.009c1.149-0.904 2.078-2.056 2.717-3.371s0.971-2.757 0.971-4.219-0.332-2.904-0.971-4.219c-0.639-1.315-1.567-2.467-2.717-3.371 1.424-1.119 3.134-1.816 4.935-2.009s3.62 0.124 5.249 0.916c1.629 0.792 3.003 2.026 3.964 3.561s1.471 3.31 1.471 5.122z"></path>
<path fill="#f79e1b" style="fill: var(--color8, #f79e1b)" d="M30.499 22.001v-0.311h0.125v-0.063h-0.319v0.063h0.125v0.311h0.068zM31.119 22.001v-0.375h-0.098l-0.113 0.258-0.113-0.258h-0.098v0.375h0.069v-0.283l0.105 0.244h0.072l0.106-0.244v0.283h0.069z"></path>
</symbol>
<symbol id="icon-medium-star" viewBox="0 0 32 32">
<path d="M16 0c0.543 8.602 7.398 15.457 16 16-8.602 0.543-15.457 7.398-16 16-0.543-8.602-7.398-15.457-16-16 8.602-0.543 15.457-7.398 16-16z"></path>
</symbol>
<symbol id="icon-minus" viewBox="0 0 32 32">
<path d="M31 16c0 0.477-0.19 0.935-0.527 1.273s-0.795 0.527-1.273 0.527h-26.4c-0.477 0-0.935-0.19-1.273-0.527s-0.527-0.795-0.527-1.273c0-0.477 0.19-0.935 0.527-1.273s0.795-0.527 1.273-0.527h26.4c0.477 0 0.935 0.19 1.273 0.527s0.527 0.795 0.527 1.273z"></path>
</symbol>
<symbol id="icon-pay" viewBox="0 0 32 32">
<path d="M6.766 11.522c0.355-0.445 0.597-1.041 0.533-1.651-0.52 0.026-1.155 0.343-1.523 0.788-0.33 0.381-0.622 1.003-0.546 1.587 0.584 0.051 1.168-0.292 1.536-0.724z"></path>
<path d="M7.292 12.36c-0.848-0.051-1.569 0.481-1.974 0.481s-1.026-0.456-1.696-0.444c-0.873 0.013-1.683 0.506-2.126 1.292-0.911 1.571-0.24 3.901 0.646 5.18 0.43 0.633 0.949 1.33 1.633 1.305 0.646-0.025 0.899-0.418 1.684-0.418s1.012 0.418 1.696 0.405c0.709-0.013 1.152-0.633 1.582-1.267 0.494-0.721 0.696-1.418 0.709-1.456-0.013-0.013-1.367-0.532-1.379-2.090-0.013-1.304 1.063-1.925 1.114-1.963-0.608-0.899-1.557-1-1.886-1.025z"></path>
<path d="M14.677 10.595c1.844 0 3.127 1.271 3.127 3.121 0 1.857-1.31 3.134-3.173 3.134h-2.041v3.246h-1.475v-9.501h3.562zM12.59 15.612h1.692c1.284 0 2.015-0.691 2.015-1.89s-0.731-1.883-2.008-1.883h-1.699v3.773z"></path>
<path d="M18.19 18.127c0-1.212 0.928-1.956 2.575-2.048l1.896-0.112v-0.533c0-0.77-0.52-1.231-1.389-1.231-0.823 0-1.337 0.395-1.462 1.014h-1.343c0.079-1.251 1.145-2.173 2.857-2.173 1.679 0 2.752 0.889 2.752 2.278v4.773h-1.363v-1.139h-0.033c-0.401 0.77-1.277 1.258-2.186 1.258-1.356 0-2.305-0.843-2.305-2.087zM22.66 17.502v-0.546l-1.705 0.105c-0.849 0.059-1.33 0.435-1.33 1.027 0 0.606 0.5 1.001 1.264 1.001 0.994 0 1.771-0.685 1.771-1.587z"></path>
<path d="M25.363 22.644v-1.152c0.105 0.026 0.342 0.026 0.461 0.026 0.658 0 1.014-0.277 1.231-0.988 0-0.013 0.125-0.421 0.125-0.428l-2.502-6.933h1.54l1.752 5.636h0.026l1.752-5.636h1.501l-2.594 7.289c-0.592 1.679-1.277 2.219-2.712 2.219-0.119 0-0.474-0.013-0.579-0.033z"></path>
</symbol>
<symbol id="icon-paypal" viewBox="0 0 32 32">
<path fill="#253b80" style="fill: var(--color9, #253b80)" d="M4.046 12.019h-2.457c-0.168 0-0.311 0.122-0.337 0.288l-0.994 6.3c-0.020 0.124 0.077 0.236 0.203 0.236h1.173c0.168 0 0.311-0.122 0.337-0.288l0.268-1.699c0.026-0.166 0.169-0.288 0.337-0.288h0.778c1.619 0 2.553-0.783 2.797-2.335 0.11-0.679 0.005-1.212-0.313-1.586-0.349-0.41-0.969-0.627-1.791-0.627zM4.33 14.32c-0.134 0.882-0.808 0.882-1.459 0.882h-0.371l0.26-1.646c0.015-0.099 0.102-0.173 0.202-0.173h0.17c0.444 0 0.862 0 1.079 0.253 0.129 0.151 0.168 0.375 0.119 0.685zM11.391 14.292h-1.177c-0.1 0-0.187 0.073-0.202 0.173l-0.052 0.329-0.082-0.119c-0.255-0.37-0.823-0.493-1.39-0.493-1.3 0-2.411 0.985-2.627 2.366-0.112 0.689 0.047 1.348 0.438 1.807 0.359 0.422 0.872 0.599 1.482 0.599 1.048 0 1.629-0.674 1.629-0.674l-0.053 0.327c-0.020 0.125 0.077 0.237 0.202 0.237h1.060c0.169 0 0.311-0.122 0.337-0.288l0.636-4.027c0.020-0.124-0.076-0.236-0.201-0.236zM9.751 16.582c-0.114 0.672-0.647 1.123-1.328 1.123-0.342 0-0.615-0.11-0.79-0.317-0.174-0.206-0.24-0.5-0.185-0.827 0.106-0.666 0.649-1.132 1.319-1.132 0.334 0 0.606 0.111 0.785 0.32 0.179 0.212 0.25 0.507 0.199 0.832zM16.476 14.292h1.182c0.166 0 0.262 0.186 0.168 0.322l-3.933 5.676c-0.064 0.092-0.169 0.147-0.281 0.147h-1.181c-0.166 0-0.263-0.187-0.167-0.323l1.225-1.728-1.302-3.822c-0.045-0.133 0.053-0.271 0.194-0.271h1.162c0.151 0 0.284 0.099 0.328 0.244l0.691 2.308 1.631-2.402c0.064-0.094 0.17-0.15 0.283-0.15z"></path>
<path fill="#179bd7" style="fill: var(--color10, #179bd7)" d="M29.296 18.607l1.008-6.415c0.015-0.1 0.102-0.173 0.202-0.173h1.135c0.125 0 0.222 0.112 0.202 0.237l-0.994 6.3c-0.026 0.166-0.169 0.288-0.337 0.288h-1.014c-0.125 0-0.222-0.112-0.202-0.236zM21.573 12.019h-2.458c-0.168 0-0.311 0.122-0.337 0.288l-0.994 6.3c-0.020 0.124 0.076 0.236 0.202 0.236h1.261c0.117 0 0.218-0.085 0.236-0.202l0.282-1.786c0.026-0.166 0.169-0.288 0.337-0.288h0.777c1.619 0 2.553-0.783 2.797-2.335 0.11-0.679 0.004-1.212-0.314-1.586-0.349-0.41-0.968-0.627-1.79-0.627zM21.857 14.32c-0.134 0.882-0.808 0.882-1.459 0.882h-0.37l0.26-1.646c0.016-0.099 0.101-0.173 0.202-0.173h0.17c0.443 0 0.862 0 1.079 0.253 0.129 0.151 0.168 0.375 0.119 0.685zM28.918 14.291h-1.176c-0.101 0-0.187 0.073-0.202 0.173l-0.052 0.329-0.083-0.119c-0.255-0.37-0.822-0.493-1.389-0.493-1.3 0-2.411 0.985-2.627 2.366-0.112 0.689 0.047 1.348 0.438 1.807 0.359 0.422 0.872 0.599 1.482 0.599 1.048 0 1.629-0.674 1.629-0.674l-0.052 0.327c-0.020 0.125 0.076 0.237 0.203 0.237h1.059c0.168 0 0.311-0.122 0.337-0.288l0.636-4.027c0.019-0.124-0.077-0.236-0.203-0.236zM27.278 16.581c-0.113 0.672-0.647 1.123-1.328 1.123-0.341 0-0.615-0.11-0.79-0.317-0.174-0.206-0.239-0.5-0.185-0.827 0.107-0.666 0.648-1.132 1.319-1.132 0.334 0 0.606 0.111 0.785 0.32 0.18 0.212 0.251 0.507 0.199 0.832z"></path>
</symbol>
<symbol id="icon-plus" viewBox="0 0 32 32">
<path d="M31 16c0 0.477-0.19 0.935-0.527 1.273s-0.795 0.527-1.273 0.527h-11.4v11.4c0 0.477-0.19 0.935-0.527 1.273s-0.795 0.527-1.273 0.527c-0.477 0-0.935-0.19-1.273-0.527s-0.527-0.795-0.527-1.273v-11.4h-11.4c-0.477 0-0.935-0.19-1.273-0.527s-0.527-0.795-0.527-1.273c0-0.477 0.19-0.935 0.527-1.273s0.795-0.527 1.273-0.527h11.4v-11.4c0-0.477 0.19-0.935 0.527-1.273s0.795-0.527 1.273-0.527c0.477 0 0.935 0.19 1.273 0.527s0.527 0.795 0.527 1.273v11.4h11.4c0.477 0 0.935 0.19 1.273 0.527s0.527 0.795 0.527 1.273z"></path>
</symbol>
<symbol id="icon-rating-star" viewBox="0 0 32 32">
<path d="M15.707 1.391l4.45 9.582 10.488 1.271-7.738 7.193 2.032 10.368-9.232-5.137-9.232 5.137 2.032-10.368-7.738-7.193 10.488-1.271 4.45-9.582z"></path>
</symbol>
<symbol id="icon-search" viewBox="0 0 32 32">
<path d="M30.249 27.933l-6.476-6.479c1.942-2.53 2.848-5.704 2.536-8.878s-1.821-6.11-4.219-8.213c-2.398-2.103-5.506-3.215-8.694-3.111s-6.216 1.417-8.472 3.673c-2.255 2.255-3.568 5.284-3.673 8.472s1.008 6.296 3.111 8.694c2.103 2.398 5.039 3.906 8.213 4.219s6.348-0.594 8.878-2.536l6.481 6.483c0.152 0.152 0.333 0.273 0.532 0.355s0.412 0.125 0.627 0.125 0.428-0.042 0.627-0.125c0.199-0.082 0.38-0.203 0.532-0.355s0.273-0.333 0.355-0.532c0.082-0.199 0.125-0.412 0.125-0.627s-0.042-0.428-0.125-0.627c-0.082-0.199-0.203-0.38-0.355-0.532l-0.006-0.004zM4.545 13.818c0-1.834 0.544-3.627 1.563-5.152s2.467-2.713 4.161-3.415c1.694-0.702 3.559-0.885 5.358-0.528s3.451 1.241 4.748 2.538 2.18 2.949 2.538 4.748c0.358 1.799 0.174 3.663-0.528 5.358s-1.89 3.143-3.415 4.161c-1.525 1.019-3.318 1.563-5.152 1.563-2.459-0.002-4.816-0.98-6.554-2.719s-2.716-4.096-2.719-6.554z"></path>
</symbol>
<symbol id="icon-sell" viewBox="0 0 32 32">
<path d="M30.632 14.942l-13.794-13.794c-0.257-0.259-0.563-0.464-0.9-0.604s-0.699-0.211-1.064-0.21h-12.874c-0.442 0-0.866 0.176-1.179 0.488s-0.488 0.736-0.488 1.179v12.874c-0.001 0.365 0.070 0.726 0.21 1.064s0.345 0.643 0.604 0.9l13.794 13.794c0.521 0.521 1.227 0.813 1.964 0.813s1.443-0.293 1.964-0.813l11.762-11.762c0.521-0.521 0.813-1.227 0.813-1.964s-0.293-1.443-0.813-1.964zM16.906 27.882l-13.239-13.243v-10.972h10.972l13.239 13.239-10.972 10.976zM10.333 8.111c0 0.44-0.13 0.869-0.375 1.235s-0.591 0.65-0.997 0.818c-0.406 0.168-0.853 0.212-1.284 0.126s-0.827-0.297-1.138-0.608c-0.311-0.311-0.522-0.707-0.608-1.138s-0.042-0.878 0.126-1.284c0.168-0.406 0.453-0.753 0.818-0.997s0.795-0.375 1.235-0.375c0.589 0 1.155 0.234 1.571 0.651s0.651 0.982 0.651 1.571z"></path>
</symbol>
<symbol id="icon-twitter" viewBox="0 0 32 32">
<path d="M29.886 7.955c-1.117 0.497-2.297 0.807-3.538 0.993 1.242-0.745 2.235-1.924 2.669-3.352-1.179 0.683-2.483 1.179-3.911 1.49-1.117-1.179-2.731-1.924-4.47-1.924-3.352 0-6.084 2.731-6.084 6.084 0 0.497 0.062 0.931 0.186 1.366-5.028-0.248-9.56-2.669-12.602-6.394-0.497 0.931-0.807 1.924-0.807 3.042 0 2.111 1.055 3.973 2.731 5.090-0.993-0.062-1.924-0.31-2.793-0.745v0.062c0 2.98 2.111 5.463 4.904 6.022-0.497 0.124-1.055 0.186-1.614 0.186-0.372 0-0.807-0.062-1.179-0.124 0.807 2.421 3.042 4.221 5.711 4.221-2.111 1.614-4.718 2.607-7.573 2.607-0.497 0-0.993 0-1.428-0.062 2.731 1.738 5.897 2.731 9.374 2.731 11.236 0 17.382-9.312 17.382-17.382 0-0.248 0-0.559 0-0.807 1.179-0.807 2.235-1.862 3.042-3.104z"></path>
</symbol>
<symbol id="icon-visa" viewBox="0 0 32 32">
<path d="M16.021 11.408l-2.046 9.566h-2.474l2.047-9.566h2.474zM26.432 17.585l1.303-3.592 0.75 3.592h-2.052zM29.193 20.974h2.289l-1.997-9.566h-2.113c-0.475 0-0.875 0.276-1.054 0.702l-3.712 8.864h2.599l0.516-1.428h3.175l0.298 1.428zM22.735 17.85c0.011-2.525-3.491-2.664-3.467-3.791 0.007-0.344 0.335-0.708 1.049-0.802 0.355-0.046 1.331-0.082 2.44 0.428l0.434-2.028c-0.595-0.216-1.362-0.424-2.315-0.424-2.446 0-4.167 1.3-4.182 3.162-0.015 1.377 1.229 2.145 2.166 2.603 0.964 0.469 1.288 0.769 1.284 1.189-0.006 0.642-0.769 0.925-1.481 0.936-1.244 0.020-1.966-0.336-2.542-0.604l-0.448 2.096c0.578 0.265 1.645 0.496 2.752 0.508 2.599 0 4.3-1.284 4.308-3.273zM12.485 11.408l-4.009 9.566h-2.616l-1.973-7.634c-0.12-0.47-0.224-0.642-0.588-0.84-0.594-0.322-1.577-0.626-2.441-0.813l0.059-0.278h4.21c0.537 0 1.019 0.357 1.141 0.975l1.042 5.536 2.575-6.511h2.6z"></path>
</symbol>
<symbol id="icon-Vector" viewBox="0 0 19 32">
<path stroke-linejoin="round" stroke-linecap="round" stroke-miterlimit="10" stroke-width="4" d="M2.193 3.86l12.14 12.14-12.14 12.14"></path>
</symbol>
<symbol id="icon-Vector-1" viewBox="0 0 240 32">
<path fill="none" stroke="#fff" style="stroke: var(--color11, #fff)" stroke-linejoin="round" stroke-linecap="round" stroke-miterlimit="10" stroke-width="24" d="M26 16h201.96"></path>
</symbol>
<symbol id="icon-calvin-klein" viewBox="0 0 196 32">
<path d="M16.122 28.661c-6.813 0-12.628-6.179-12.628-12.919 0-6.715 5.694-13.017 12.579-13.017 4.526 0 7.785 2.19 10.438 5.621h3.333c-0.998-1.801-2.068-3.455-3.698-4.745-2.798-2.263-6.424-3.6-10.024-3.6-8.638 0-15.669 7.129-15.669 15.718 0 8.613 7.129 15.669 15.718 15.669 3.504 0 6.935-1.289 9.684-3.455 1.728-1.387 2.944-3.187 4.112-5.037h-3.333c-2.629 3.431-5.986 5.766-10.512 5.766zM50.672 12.238c-2.092-2.701-4.939-4.404-8.467-4.404-6.326 0-11.533 5.135-11.533 11.461 0 6.325 5.232 11.508 11.533 11.508 3.674 0 6.228-1.533 8.467-4.356v3.844h2.749v-21.922h-2.749v3.869zM42.060 28.272c-4.843 0-8.663-4.209-8.663-8.953 0-4.721 3.796-8.954 8.663-8.954 4.841 0 8.613 4.234 8.613 8.954 0 4.744-3.796 8.953-8.613 8.953zM56.755 30.291h2.945v-29.66h-2.945v29.66zM70.818 26.811l-7.445-18.442h-2.92l8.93 21.922h2.968l8.906-21.922h-2.871l-7.567 18.442zM82.473 30.291h2.944v-21.922h-2.944v21.922zM82.473 5.547h2.944v-4.915h-2.944v4.915zM98.093 7.833c-2.774 0-4.744 1.461-6.569 3.407v-2.871h-2.726v21.922h2.895v-13.358c-0.024-3.528 2.896-6.568 6.448-6.568 4.452 0 6.69 3.869 6.69 7.859v12.068h2.725v-12.068c0.001-5.693-3.331-10.39-9.463-10.39zM134.881 0.631l-13.382 17.008v-17.008h-2.895v29.66h2.895v-8.151l3.796-4.72 9.659 12.87h3.675l-11.486-15.207 11.486-14.453h-3.749zM139.699 30.291h2.872v-29.66h-2.872v29.66zM166.342 13.892c-1.995-3.723-5.986-6.059-10.196-6.059-6.277 0-11.582 5.232-11.582 11.509 0 6.325 5.353 11.46 11.633 11.46 2.991 0 5.937-1.192 8.101-3.26 1.315-1.241 2.093-2.798 2.797-4.429h-3.089c-1.558 3.042-4.308 5.158-7.861 5.158-2.164 0-4.281-0.876-5.886-2.36-1.656-1.507-2.386-3.358-2.703-5.547h20.221c0.001-2.287-0.316-4.476-1.435-6.472zM147.655 17.834c0.878-4.111 4.112-7.469 8.542-7.469 3.722 0 7.713 2.288 8.588 7.469h-17.13zM169.919 30.291h2.894v-21.922h-2.894v21.922zM169.919 5.645h2.894v-5.013h-2.894v5.013zM185.54 7.833c-2.824 0-4.794 1.461-6.644 3.407v-2.871h-2.774v21.922h2.92v-13.358c-0.024-3.552 2.969-6.568 6.545-6.568 4.429 0 6.766 3.869 6.766 7.859v12.068h2.725v-12.068c0-5.693-3.384-10.39-9.538-10.39z"></path>
</symbol>
<symbol id="icon-gucci" viewBox="0 0 148 32">
<path d="M133.453 9.688l-0.275 0.087c-1.066-2.206-2.591-3.961-4.572-5.267-1.951-1.306-4.405-1.959-7.362-1.959-1.646 0-3.216 0.334-4.71 1.001-1.494 0.639-2.805 1.553-3.932 2.743-1.097 1.161-1.982 2.568-2.652 4.223s-1.006 3.483-1.006 5.485c0 2.002 0.335 3.831 1.006 5.485s1.555 3.076 2.652 4.266c1.128 1.161 2.439 2.061 3.932 2.699s3.064 0.958 4.71 0.958c2.926 0 5.304-0.435 7.133-1.306 1.86-0.9 3.43-2.264 4.71-4.092l0.275 0.087-0.091 2.786c-0.701 0.696-1.509 1.32-2.424 1.872-0.915 0.522-1.905 0.972-2.972 1.35-1.036 0.348-2.119 0.609-3.246 0.784-1.128 0.203-2.256 0.305-3.384 0.305-2.347 0-4.587-0.363-6.721-1.088s-4.009-1.741-5.624-3.047c-1.616-1.335-2.896-2.931-3.841-4.789-0.945-1.886-1.418-3.976-1.418-6.269s0.473-4.368 1.418-6.225c0.945-1.886 2.225-3.497 3.841-4.832s3.49-2.351 5.624-3.047c2.134-0.726 4.374-1.088 6.721-1.088 1.128 0 2.256 0.087 3.384 0.261s2.21 0.45 3.246 0.827c1.067 0.348 2.057 0.798 2.972 1.35 0.915 0.522 1.722 1.132 2.424 1.828l0.183 4.615zM32.691 18.003c-0.335 0.145-0.655 0.334-0.96 0.566s-0.457 0.551-0.457 0.958v5.354c-1.463 2.003-3.338 3.555-5.624 4.658s-4.817 1.654-7.591 1.654c-2.347 0-4.588-0.363-6.722-1.088s-4.009-1.741-5.624-3.047c-1.616-1.335-2.896-2.931-3.841-4.789-0.945-1.886-1.417-3.976-1.417-6.269s0.472-4.368 1.417-6.225c0.945-1.886 2.225-3.497 3.841-4.832s3.49-2.351 5.624-3.047c2.134-0.726 4.374-1.088 6.722-1.088 1.128 0 2.256 0.087 3.384 0.261s2.21 0.45 3.247 0.827c1.067 0.348 2.058 0.798 2.972 1.35 0.915 0.522 1.722 1.132 2.424 1.828l0.183 4.614-0.274 0.087c-1.067-2.206-2.591-3.961-4.573-5.267-1.951-1.306-4.405-1.959-7.362-1.959-1.646 0-3.216 0.334-4.71 1.001-1.494 0.638-2.805 1.553-3.933 2.743-1.097 1.161-1.982 2.568-2.652 4.223s-1.006 3.483-1.006 5.485c0 1.973 0.32 3.787 0.96 5.441 0.671 1.654 1.555 3.076 2.652 4.266 1.128 1.161 2.439 2.075 3.932 2.742 1.494 0.639 3.079 0.958 4.755 0.958 3.17 0 5.883-0.58 8.139-1.741v-8.141c0-0.406-0.168-0.725-0.503-0.958-0.305-0.232-0.61-0.421-0.915-0.566l0.042-0.217c0.152 0.027 0.427 0.056 0.823 0.087 0.397 0.027 0.808 0.056 1.235 0.087h3.933c0.366-0.027 0.716-0.055 1.052-0.087 0.335-0.027 0.594-0.055 0.777-0.087l0.049 0.218zM65.811 1.722c-0.305 0.145-0.61 0.334-0.915 0.566s-0.473 0.667-0.503 1.306c-0.028 0.697-0.058 1.582-0.091 2.655 0 1.045-0.014 2.235-0.042 3.57 0 1.335-0.014 2.786-0.042 4.353v4.876c-0.028 1.886-0.272 3.497-0.732 4.832-0.457 1.335-1.067 2.452-1.829 3.352-0.732 0.9-1.555 1.611-2.469 2.133-0.884 0.522-1.768 0.914-2.652 1.175-0.854 0.29-1.661 0.464-2.423 0.522-0.762 0.087-1.357 0.131-1.783 0.131-1.737 0-3.414-0.218-5.030-0.653-1.616-0.406-3.033-1.074-4.252-2.003s-2.195-2.133-2.926-3.613c-0.732-1.48-1.097-3.279-1.097-5.398v-9.447c0-1.393-0.014-2.641-0.042-3.744 0-1.132-0.014-2.046-0.042-2.743-0.028-0.639-0.195-1.074-0.503-1.306-0.305-0.232-0.61-0.421-0.915-0.566l0.042-0.217c0.152 0.027 0.396 0.055 0.732 0.087 0.366 0.027 0.732 0.055 1.097 0.087 0.397 0 0.778 0.013 1.143 0.040h1.646c0.366-0.027 0.747-0.040 1.143-0.040 0.397-0.027 0.762-0.055 1.097-0.087 0.366-0.027 0.625-0.055 0.777-0.087l0.042 0.217c-0.335 0.145-0.655 0.334-0.96 0.566-0.274 0.232-0.427 0.667-0.458 1.306-0.028 0.697-0.058 1.611-0.091 2.743v13.19c0 3.163 0.777 5.499 2.332 7.009s3.856 2.264 6.905 2.264c0.884 0 1.89-0.102 3.018-0.305 1.128-0.232 2.18-0.696 3.155-1.393 1.006-0.697 1.844-1.683 2.515-2.96 0.701-1.277 1.052-2.975 1.052-5.093 0-2.293-0.014-4.252-0.042-5.877 0-1.654-0.014-3.062-0.042-4.223 0-1.19-0.014-2.206-0.042-3.047s-0.058-1.611-0.091-2.307c-0.028-0.639-0.195-1.074-0.503-1.306-0.305-0.232-0.61-0.421-0.914-0.566l0.042-0.217c0.335 0.058 0.716 0.116 1.143 0.174 0.427 0.027 0.823 0.040 1.189 0.040 0.335 0 0.716-0.013 1.143-0.040 0.457-0.058 0.854-0.116 1.189-0.174l0.029 0.218zM98.991 9.688l-0.275 0.087c-1.066-2.206-2.591-3.961-4.572-5.267-1.951-1.306-4.405-1.959-7.362-1.959-1.646 0-3.216 0.334-4.71 1.001-1.494 0.639-2.805 1.553-3.932 2.743-1.097 1.161-1.981 2.568-2.652 4.223s-1.006 3.483-1.006 5.485 0.335 3.831 1.006 5.485c0.671 1.654 1.555 3.076 2.652 4.266 1.128 1.161 2.439 2.061 3.932 2.699s3.064 0.958 4.71 0.958c2.927 0 5.304-0.435 7.133-1.306 1.86-0.9 3.43-2.264 4.71-4.092l0.275 0.087-0.091 2.786c-0.701 0.696-1.51 1.32-2.424 1.872-0.915 0.522-1.906 0.972-2.972 1.35-1.036 0.348-2.119 0.609-3.247 0.784-1.128 0.203-2.256 0.305-3.384 0.305-2.347 0-4.588-0.363-6.722-1.088s-4.009-1.741-5.624-3.047c-1.616-1.335-2.896-2.931-3.841-4.789-0.945-1.886-1.418-3.976-1.418-6.269s0.472-4.368 1.418-6.225c0.945-1.886 2.225-3.497 3.841-4.832s3.49-2.351 5.624-3.047c2.134-0.726 4.374-1.088 6.722-1.088 1.128 0 2.256 0.087 3.384 0.261s2.21 0.45 3.247 0.827c1.067 0.348 2.058 0.798 2.972 1.35 0.914 0.522 1.722 1.132 2.424 1.828l0.183 4.615zM147.235 30.453c-0.152-0.027-0.411-0.056-0.776-0.087-0.335 0-0.701-0.013-1.097-0.040-0.397 0-0.778-0.013-1.144-0.040h-2.744c-0.365 0.027-0.731 0.055-1.097 0.087-0.335 0.027-0.594 0.055-0.776 0.087l-0.042-0.174c0.305-0.145 0.61-0.334 0.915-0.566s0.472-0.667 0.503-1.306c0.028-0.697 0.041-1.422 0.041-2.177 0.028-0.755 0.042-1.611 0.042-2.568v-15.367c0-0.958-0.014-1.799-0.042-2.525 0-0.755-0.013-1.48-0.041-2.177-0.028-0.639-0.196-1.074-0.503-1.306-0.305-0.261-0.61-0.464-0.915-0.609l0.042-0.174c0.183 0.058 0.441 0.101 0.776 0.131 0.366 0 0.732 0.013 1.097 0.040 0.396 0.027 0.777 0.040 1.144 0.040h1.6c0.366-0.027 0.747-0.040 1.144-0.040 0.396-0.027 0.762-0.055 1.097-0.087 0.365-0.027 0.624-0.055 0.776-0.087l0.042 0.174c-0.335 0.145-0.655 0.348-0.961 0.609-0.274 0.232-0.426 0.667-0.457 1.306-0.027 0.697-0.058 1.422-0.091 2.177v20.46c0.028 0.755 0.058 1.48 0.091 2.177 0.028 0.639 0.181 1.074 0.457 1.306 0.306 0.232 0.626 0.421 0.961 0.566l-0.042 0.17z"></path>
</symbol>
<symbol id="icon-prada" viewBox="0 0 195 32">
<path stroke-linejoin="miter" stroke-linecap="butt" stroke-miterlimit="2.613" stroke-width="1.0242" d="M0.482 0.902l2.932 3.307v24.202l-2.173 3.167 13.309 0.020-2.399-2.914-0.249-8.716 12.833 0.070c3.89-1.295 7.889-4.056 8.081-9.638-0.061-5.409-3.364-8.879-7.198-9.569l-25.136 0.071zM11.427 2.45v15.548l9.846 0.071c2.24-1.807 3.939-3.19 3.871-7.528-0.032-3.537-0.779-6.621-4.075-8.091l-9.642-0.001zM38.975 0.725l2.932 3.308v24.202l-2.173 3.168 13.309 0.019-2.399-2.914-0.249-8.716h0.053l13.75 11.728 11.411-0.093-10.415-9.008h-8.694l-3.064-2.61 9.792 0.053c3.89-1.295 7.888-4.056 8.081-9.638-0.061-5.409-3.363-8.879-7.198-9.568l-25.135 0.070zM49.919 2.273v15.548l9.846 0.071c2.241-1.807 3.939-3.19 3.871-7.529-0.032-3.536-0.779-6.621-4.075-8.091h-9.642zM86.595 0.691h11.476l14.938 27.72c0.647 2.14 2.58 1.876 3.871 2.815h-14.464l2.174-0.68-0.136-2.064-3.735-5.981-12.698 0.071-2.716 5.77c-0.091 0.656-0.793 1.154-0.272 1.969l1.019 0.985-6.247-0.141 2.717-0.844 10.252-21.599v-1.478l-4.332-5.779-1.847-0.764zM88.824 20.598l5.274-9.985 5.491 9.929-10.765 0.056zM164.197 0.751h11.475l14.939 27.72c0.646 2.14 2.58 1.876 3.871 2.815h-14.465l2.174-0.681-0.136-2.064-3.735-5.979-12.698 0.071-2.716 5.768c-0.091 0.658-0.792 1.156-0.272 1.971l1.019 0.985-6.246-0.141 2.716-0.844 10.253-21.599v-1.479l-4.332-5.778-1.847-0.764zM166.425 20.659l5.274-9.985 5.492 9.928-10.766 0.058zM120.849 0.402l20.443 0.113c6.583 1.542 10.772 5.564 12.071 12.58l-0.055 5.472c-1.2 6.252-5.133 10.565-12.070 12.749l-20.498 0.058-0.003-0.662c3.116-0.235 3.365-0.591 3.373-2.441v-24.935c-0.035-1.368-0.308-2.219-3.316-2.313l0.055-0.62zM132.469 2.536l-0.019 26.978c2.696 0.009 5.035 0.262 6.356-0.413 2.995-1.368 4.385-3.468 4.513-5.441l-0.072-15.93c0.001-2.548-2.765-4.347-4.362-4.816-1.142-0.423-3.42-0.441-6.416-0.378z"></path>
</symbol>
<symbol id="icon-versace" viewBox="0 0 157 32">
<path d="M141.345 0.617h15.344v2.445c-0.446-0.15-0.913-0.227-1.383-0.228h-8.82v11.424h8.58c0.616 0 1.165-0.068 1.622-0.183v2.434c-0.389-0.091-0.924-0.137-1.588-0.137h-8.614v11.813h8.556c0.47 0 1.029-0.068 1.645-0.217v2.628h-15.32c0.122-0.462 0.184-0.938 0.184-1.416v-27.112c0-0.594-0.069-1.085-0.206-1.451zM137.793 8.397l-4.433-0.034c-0.217-2.491-1.645-4.903-4.787-5.347-6.729-0.606-8.626 6.785-8.455 12.19 0.172 5.209 1.005 13.218 7.952 13.218 2.914 0 5.712-2.994 5.621-5.518l4.102-0.034c-0.297 5.209-6.272 8.225-9.117 8.328-9.721 0.332-13.79-6.147-13.995-15.39-0.183-8.373 3.245-15.811 12.853-15.811 8.226 0.115 9.814 4.982 10.26 8.397zM68.65 27.191l2.937-2.456c1.53 2.525 2.787 3.678 5.826 3.678 3.084 0 5.678-1.873 5.678-5.186 0-1.634-0.663-2.971-1.977-3.976-0.595-0.469-2.103-1.28-4.479-2.411-3.553-1.702-7.014-3.919-7.014-8.374 0-5.621 4.775-8.101 9.813-8.284 2.982-0.114 6.684 1.532 8.18 3.382l-2.982 2.296c-0.532-0.992-1.322-1.822-2.288-2.401s-2.070-0.886-3.196-0.888c-3.805 0-6.821 4.41-3.668 7.449 0.799 0.777 2.434 1.736 4.925 2.878 3.975 1.863 7.368 4.090 7.368 9.014 0 1.702-0.446 3.29-1.325 4.741-1.77 2.925-4.73 4.387-8.865 4.387-4.753 0-5.689-1.085-8.935-3.851zM26.813 0.617h15.331v2.445c-0.445-0.15-0.912-0.227-1.382-0.228h-8.819v11.424h8.58c0.617 0 1.166-0.068 1.622-0.183v2.434c-0.389-0.091-0.925-0.137-1.576-0.137h-8.626v11.813h8.557c0.468 0 1.029-0.068 1.645-0.217v2.628h-15.308c0.112-0.464 0.169-0.939 0.171-1.416v-27.112c0-0.594-0.069-1.085-0.194-1.451zM0 0.617h5.575v0.275c0 0.251 0.080 0.582 0.217 1.005l7.859 23.66 8.066-23.764c0.125-0.399 0.194-0.788 0.194-1.177h2.708c-0.274 0.48-0.48 0.903-0.606 1.28l-9.209 27.477c-0.091 0.263-0.171 0.674-0.239 1.223h-4.57c-0.069-0.415-0.172-0.824-0.308-1.223l-9.025-27.26c-0.208-0.503-0.426-1.002-0.652-1.497h-0.011zM59.214 16.247c3.656-0.72 6.455-3.519 6.455-7.518 0-5.245-4.387-8.113-9.3-8.113h-8.98c0.125 0.458 0.194 0.937 0.194 1.44v27.099c0 0.583-0.069 1.074-0.194 1.44h5.347c-0.131-0.469-0.196-0.953-0.194-1.44v-12.452l1.713 0.183 8.958 13.709h5.381l-9.38-14.349zM58.288 13.962c-0.971 0.685-2.137 1.027-3.473 1.027h-2.285v-12.188h2.045c1.749 0 3.108 0.433 4.079 1.301 1.325 1.201 1.999 2.823 1.999 4.856 0 2.194-0.789 3.862-2.365 5.004zM113.789 29.351l-9.984-27.739c-0.111-0.321-0.177-0.655-0.195-0.994h-4.319c0 0.354-0.057 0.731-0.195 1.108l-9.676 27.626c-0.127 0.399-0.332 0.811-0.606 1.245h2.787c-0.011-0.457 0.046-0.88 0.172-1.245l2.866-8.147h11.025l2.834 8.147c0.149 0.444 0.216 0.856 0.216 1.244h5.782c-0.332-0.468-0.571-0.891-0.709-1.245zM95.396 18.999l4.661-13.538 4.788 13.538h-9.448z"></path>
</symbol>
<symbol id="icon-zara" viewBox="0 0 77 32">
<path d="M73.107 31.047l-11.361-31.040h-0.224l-6.594 17.979-0.010-0.009c-1.475-1.292-3.556-2.099-6.178-2.4l-0.799-0.082 0.793-0.101c4.322-0.771 7.228-3.48 7.228-6.744 0-4.476-4.242-7.6-10.319-7.6h-12.643v0.227h3.674v23.127l-8.93-24.398h-0.224l-11.356 30.96-0.055 0.006c-0.154 0.019-0.307 0.034-0.457 0.045-0.227 0.018-0.452 0.028-0.679 0.028h-9.111l17.448-29.993h-21.183v9.209h0.225c0.040-4.486 2.672-8.985 8.489-8.985h7.017l-17.451 29.993h23.509v-8.823h-0.225c-0.031 3.91-2.264 7.623-7.121 8.462l-0.154 0.026 3.699-10.089h10.361l3.733 10.201h-3.683v0.223h14.455v-0.223h-3.699v-15.387h4.268c4.343 0 6.834 1.925 6.834 5.281v2.73c0 0.301 0.021 0.74 0.043 1.108v0.013l-2.294 6.254h-2.997v0.223h6.203v-0.223h-2.964l2.089-5.695c0.004 0.055 0.006 0.088 0.006 0.088l0.058 0.513 0.056 0.339c0.349 2.1 1.158 3.644 2.405 4.588l0.179 0.129c0.947 0.654 2.125 0.985 3.501 0.985 1.823 0 3.039-0.451 4.042-1.513l-0.132-0.123c-0.925 0.847-1.701 1.19-2.673 1.19-1.657 0-2.524-1.994-2.524-3.96v-3.824c0.009-0.949-0.141-1.893-0.443-2.793l-0.041-0.119v-0.004h7.579l3.733 10.201h-3.683v0.223h12.509v-0.223l-3.931-0.001zM20.196 20.623l5.104-13.916 5.093 13.916h-10.197zM41.285 15.436v-14.159h3.258c4.352 0 6.649 2.567 6.649 7.421 0 5.163-1.319 6.737-5.641 6.737h-4.266zM56.81 20.623l-0.022-0.055c-0.337-0.814-0.827-1.557-1.445-2.188l-0.213-0.212-0.023-0.021 4.192-11.44 5.093 13.916h-7.582z"></path>
</symbol>
</defs>
</svg>
